<svg width="56" height="56" viewBox="0 0 56 56" fill="none" xmlns="http://www.w3.org/2000/svg">
<path d="M18.5543 -3.51433e-05C13.6334 -3.49282e-05 8.91405 1.95478 5.43446 5.43437C1.95487 8.91396 6.03805e-05 13.6333 6.02241e-05 18.5542C6.00677e-05 23.4751 1.95487 28.1944 5.43446 31.674C8.91405 35.1536 13.6334 37.1084 18.5543 37.1084L18.5543 18.5542L18.5543 -3.51433e-05Z" fill="#A77DFF"/>
<path d="M55.3254 18.5542C55.3254 13.6333 53.3706 8.91399 49.891 5.4344C46.4114 1.95481 41.6921 3.71516e-07 36.7712 0C31.8503 -3.71516e-07 27.131 1.95481 23.6514 5.4344C20.1718 8.91399 18.217 13.6333 18.217 18.5542L36.7712 18.5542L55.3254 18.5542Z" fill="#A77DFF"/>
<path d="M2.83249e-05 37.4458C2.78947e-05 42.3667 1.95484 47.086 5.43443 50.5656C8.91402 54.0452 13.6334 56 18.5542 56C23.4751 56 28.1945 54.0452 31.6741 50.5656C35.1536 47.086 37.1085 42.3667 37.1085 37.4458L18.5542 37.4458L2.83249e-05 37.4458Z" fill="#A77DFF"/>
<path d="M37.4457 55.3252C42.3666 55.3252 47.0859 53.3704 50.5655 49.8908C54.0451 46.4112 55.9999 41.6919 55.9999 36.771C55.9999 31.8501 54.0451 27.1308 50.5655 23.6512C47.0859 20.1716 42.3666 18.2168 37.4457 18.2168L37.4457 36.771L37.4457 55.3252Z" fill="#A77DFF"/>
</svg>
