<svg width="224" height="224" viewBox="0 0 224 224" fill="none" xmlns="http://www.w3.org/2000/svg">
<rect x="0.847807" y="0.847807" width="222.238" height="222.238" rx="111.119" fill="#0A0A0A" stroke="#A77DFF" stroke-width="1.69561"/>
<path fill-rule="evenodd" clip-rule="evenodd" d="M42.1116 60.5478L85.7737 28.8254H139.743L183.405 60.5478L200.082 111.876L183.405 163.203L139.743 194.926H85.7737L42.1116 163.203L25.4342 111.876L42.1116 60.5478ZM112.758 37.5933L92.4926 31.0085L133.024 31.0085L112.758 37.5933ZM109.226 38.741L86.6075 31.3918L72.6286 50.6322L109.226 38.741ZM73.622 52.6049L110.387 40.6593L96.2119 60.2338L73.622 52.6049ZM69.7659 54.5724L46.1811 87.0341L69.6679 79.5092L69.7659 54.5724ZM69.6588 81.8045L45.7645 89.46L60.4063 109.68L69.5992 96.9848L69.6588 81.8045ZM71.7942 93.9535L71.8447 81.1041L83.8946 77.2435L71.7942 93.9535ZM69.5845 100.727L61.754 111.541L69.4999 122.237L69.5845 100.727ZM71.6712 125.236L71.7795 97.696L87.4042 76.119L112.56 68.0592L139.219 77.0623L154.808 98.5903L155.023 125.791L129.493 160.098L87.0744 146.507L71.6712 125.236ZM69.4853 125.94L60.4063 113.402L45.97 133.338L69.4267 140.853L69.4853 125.94ZM71.6071 141.552L71.6567 128.938L83.5648 145.383L71.6071 141.552ZM69.4177 143.142L45.2157 135.388L69.3178 168.562L69.4177 143.142ZM71.4935 170.455L71.5981 143.841L85.7263 148.368L111.021 183.298L71.4935 170.455ZM142.787 78.2672L154.779 94.827L154.679 82.2834L142.787 78.2672ZM154.661 79.973L140.578 75.217L131.095 62.121L154.461 54.6348L154.661 79.973ZM156.868 83.0227L156.986 97.8752L166.264 110.687L180.829 91.1147L156.868 83.0227ZM180.56 88.7194L156.85 80.7123L156.653 55.8149L180.56 88.7194ZM137.01 74.0121L116.062 66.9374L128.907 62.8219L137.01 74.0121ZM112.578 65.7611L127.56 60.9612L112.97 40.8137L98.3777 60.9652L112.578 65.7611ZM94.8712 62.0853L86.0561 74.2585L71.8537 78.8088L71.9499 54.3444L94.8712 62.0853ZM97.0369 62.8167L109.077 66.8828L89.5657 73.1341L97.0369 62.8167ZM131.691 160.802L155.052 129.41L155.36 168.385L131.691 160.802ZM157.212 126.507L157.53 166.729L180.96 134.481L180.854 134.558L166.24 114.376L157.212 126.507ZM157.016 101.638L157.184 122.889L164.898 112.523L157.016 101.638ZM115.684 40.8394L152.762 52.8867L129.748 60.2603L115.684 40.8394ZM44.2946 91.1524V131.929L59.0586 111.541L44.2946 91.1524ZM115.094 183.104L154.342 170.351L130.313 162.653L115.094 183.104ZM128.116 161.949L112.982 182.284L89.2359 149.492L128.116 161.949ZM167.606 112.541L181.222 131.344V94.244L167.606 112.541ZM69.0963 51.7799L81.6211 34.5409L48.8305 58.3646L69.0963 51.7799ZM48.8306 165.387L81.6212 189.21L69.0963 171.971L48.8306 165.387ZM66.9132 168.967L44.2946 137.835V161.617L66.9132 168.967ZM42.1115 134.83V156.139L29.5867 117.591L42.1115 134.83ZM42.1115 92.6353L28.1326 111.876L42.1115 131.116V92.6353ZM42.1115 88.9212L29.5867 106.16L42.1115 67.6127V88.9212ZM44.2946 85.9164V62.1339L66.9132 54.7847L44.2946 85.9164ZM72.6286 173.119L86.6075 192.359L109.226 185.01L72.6286 173.119ZM112.758 186.158L92.4926 192.743H133.024L112.758 186.158ZM143.895 189.21L176.686 165.387L156.42 171.971L143.895 189.21ZM152.888 173.119L116.291 185.01L138.909 192.359L152.888 173.119ZM158.603 168.967L181.222 161.617V137.835L158.603 168.967ZM183.405 134.83V156.139L195.93 117.591L183.405 134.83ZM195.93 106.16L183.405 67.6125V88.9212L195.93 106.16ZM183.405 131.116L197.384 111.876L183.405 92.6353V131.116ZM181.222 85.9164V62.1339L158.603 54.7847L181.222 85.9164ZM156.42 51.7799L176.686 58.3647L143.895 34.5407L156.42 51.7799ZM152.888 50.6322L116.291 38.741L138.909 31.3918L152.888 50.6322Z" fill="url(#paint0_radial_33_55)"/>
<defs>
<radialGradient id="paint0_radial_33_55" cx="0" cy="0" r="1" gradientUnits="userSpaceOnUse" gradientTransform="translate(115.153 110.995) rotate(57.1886) scale(98.7055 103.785)">
<stop stop-color="#A77DFF"/>
<stop offset="1" stop-color="#A77DFF" stop-opacity="0"/>
</radialGradient>
</defs>
</svg>
