<svg width="47" height="71" viewBox="0 0 47 71" fill="none" xmlns="http://www.w3.org/2000/svg">
<path d="M-1.76625e-06 23.4313C-2.30953e-06 29.6457 2.46867 35.6056 6.86292 39.9999C11.2572 44.3941 17.2171 46.8628 23.4315 46.8628C29.6459 46.8628 35.6058 44.3941 40.0001 39.9999C44.3943 35.6056 46.863 29.6457 46.863 23.4313L23.4315 23.4313L-1.76625e-06 23.4313Z" fill="#A77DFF"/>
<path d="M2.87513e-05 46.8937C2.8208e-05 53.1081 2.46869 59.068 6.86295 63.4623C11.2572 67.8565 17.2171 70.3252 23.4315 70.3252C29.646 70.3252 35.6058 67.8565 40.0001 63.4623C44.3944 59.068 46.863 53.1081 46.863 46.8937L23.4315 46.8937L2.87513e-05 46.8937Z" fill="#A77DFF"/>
</svg>
