<svg width="39" height="56" viewBox="0 0 39 56" fill="none" xmlns="http://www.w3.org/2000/svg">
<path d="M38.3256 18.5542C38.3256 13.6333 36.3708 8.91399 32.8912 5.4344C29.4116 1.95481 24.6922 3.71516e-07 19.7714 0C14.8505 -3.71516e-07 10.1311 1.95481 6.65155 5.4344C3.17196 8.91399 1.21715 13.6333 1.21715 18.5542L19.7714 18.5542L38.3256 18.5542Z" fill="#A77DFF"/>
<path d="M1.00007 18.5542C1.00007 23.4751 2.95489 28.1944 6.43448 31.674C9.91407 35.1536 14.6334 37.1084 19.5543 37.1084C24.4752 37.1084 29.1945 35.1536 32.6741 31.674C36.1537 28.1944 38.1085 23.4751 38.1085 18.5542L19.5543 18.5542L1.00007 18.5542Z" fill="#A77DFF"/>
<path d="M0.891599 36.771C0.891599 41.6919 2.84641 46.4112 6.326 49.8908C9.80559 53.3704 14.5249 55.3252 19.4458 55.3252C24.3667 55.3252 29.086 53.3704 32.5656 49.8908C36.0452 46.4112 38 41.6919 38 36.771L19.4458 36.771L0.891599 36.771Z" fill="#A77DFF"/>
</svg>
