<svg width="38" height="56" viewBox="0 0 38 56" fill="none" xmlns="http://www.w3.org/2000/svg">
<path d="M37.434 18.5542C37.434 13.6333 35.4792 8.91399 31.9996 5.4344C28.52 1.95481 23.8007 3.71516e-07 18.8798 0C13.9589 -3.71516e-07 9.23956 1.95481 5.75997 5.4344C2.28038 8.91399 0.325562 13.6333 0.325562 18.5542L18.8798 18.5542L37.434 18.5542Z" fill="#A77DFF"/>
<path d="M2.83249e-05 36.771C2.78947e-05 41.6919 1.95484 46.4112 5.43443 49.8908C8.91402 53.3704 13.6334 55.3252 18.5542 55.3252C23.4751 55.3252 28.1945 53.3704 31.6741 49.8908C35.1536 46.4112 37.1085 41.6919 37.1085 36.771L18.5542 36.771L2.83249e-05 36.771Z" fill="#A77DFF"/>
<line x1="19" y1="18" x2="19" y2="37" stroke="#A77DFF" stroke-width="2"/>
</svg>
