<svg width="226" height="226" viewBox="0 0 226 226" fill="none" xmlns="http://www.w3.org/2000/svg">
<rect x="0.855379" y="0.855379" width="224.223" height="224.223" rx="112.111" fill="#0A0A0A" stroke="#A77DFF" stroke-width="1.71076"/>
<path fill-rule="evenodd" clip-rule="evenodd" d="M201.869 113.765C201.869 65.1069 162.424 25.6614 113.765 25.6614C65.1069 25.6614 25.6614 65.1069 25.6614 113.765C25.6614 162.424 65.1069 201.869 113.765 201.869C162.424 201.869 201.869 162.424 201.869 113.765ZM102.752 113.765C102.752 152.43 105.866 185.278 110.196 197.14C109.378 196.292 108.495 195.123 107.562 193.545C105.12 189.413 102.825 183.252 100.862 175.397C96.9447 159.729 94.4926 137.937 94.4926 113.765C94.4926 89.5935 96.9447 67.8023 100.862 52.1342C102.825 44.279 105.12 38.1174 107.562 33.986C108.495 32.4081 109.378 31.2393 110.196 30.3913C105.866 42.2532 102.752 75.1007 102.752 113.765ZM119.969 193.545C119.036 195.123 118.152 196.292 117.335 197.14C121.665 185.278 124.778 152.43 124.778 113.765C124.778 75.1007 121.665 42.2532 117.335 30.3913C118.152 31.2392 119.036 32.4081 119.969 33.986C122.411 38.1174 124.705 44.279 126.669 52.1342C130.586 67.8023 133.038 89.5935 133.038 113.765C133.038 137.937 130.586 159.729 126.669 175.397C124.705 183.252 122.411 189.413 119.969 193.545ZM105.722 195.81C104.805 195.052 103.885 194.157 102.965 193.119C99.3155 189.003 95.9029 182.889 92.9812 175.098C87.1454 159.536 83.4796 137.852 83.4796 113.765C83.4796 89.6789 87.1454 67.9953 92.9812 52.4332C95.9029 44.642 99.3155 38.5281 102.965 34.4116C103.885 33.3743 104.805 32.4792 105.722 31.7204C97.5356 44.5714 91.7394 76.4609 91.7394 113.765C91.7394 151.07 97.5356 182.959 105.722 195.81ZM121.809 195.81C122.726 195.052 123.646 194.157 124.566 193.119C128.215 189.003 131.628 182.889 134.55 175.098C140.385 159.536 144.051 137.852 144.051 113.765C144.051 89.6789 140.385 67.9953 134.55 52.4332C131.628 44.642 128.215 38.5281 124.566 34.4116C123.646 33.3743 122.726 32.4792 121.809 31.7204C129.995 44.5714 135.791 76.4608 135.791 113.765C135.791 151.07 129.995 182.959 121.809 195.81ZM85.0785 174.833C89.5503 183.777 94.8307 190.428 100.506 194.487C88.8606 180.865 80.7264 149.848 80.7264 113.765C80.7264 77.6825 88.8606 46.6659 100.506 33.0437C94.8307 37.1024 89.5503 43.754 85.0785 52.6977C77.3353 68.1841 72.4666 89.7709 72.4666 113.765C72.4666 137.76 77.3353 159.347 85.0785 174.833ZM142.452 174.833C137.98 183.777 132.7 190.428 127.025 194.487C138.67 180.865 146.804 149.848 146.804 113.765C146.804 77.6826 138.67 46.6659 127.025 33.0437C132.7 37.1024 137.98 43.754 142.452 52.6977C150.195 68.1841 155.064 89.7709 155.064 113.765C155.064 137.76 150.195 159.347 142.452 174.833ZM94.6904 193.204C88.1698 189.005 82.212 182.683 77.1633 174.605C67.5126 159.164 61.4536 137.661 61.4536 113.765C61.4536 89.8696 67.5126 68.3667 77.1633 52.9257C82.212 44.8477 88.1698 38.5258 94.6903 34.3269C79.9129 48.5464 69.7134 78.7737 69.7134 113.765C69.7134 148.757 79.9129 178.984 94.6904 193.204ZM132.84 193.204C139.361 189.005 145.319 182.683 150.367 174.605C160.018 159.164 166.077 137.661 166.077 113.765C166.077 89.8696 160.018 68.3667 150.367 52.9257C145.319 44.8477 139.361 38.5258 132.84 34.3269C147.618 48.5464 157.817 78.7737 157.817 113.765C157.817 148.757 147.618 178.984 132.84 193.204ZM69.2438 174.412C74.756 181.762 81.2226 187.717 88.3422 191.938C70.727 177.242 58.7004 147.751 58.7004 113.765C58.7004 79.7801 70.727 50.2891 88.3422 35.5933C81.2226 39.8137 74.756 45.7688 69.2438 53.1184C57.6765 68.5414 50.4406 89.9743 50.4406 113.765C50.4406 137.557 57.6765 158.989 69.2438 174.412ZM158.287 174.412C152.775 181.762 146.308 187.717 139.189 191.938C156.804 177.242 168.83 147.751 168.83 113.765C168.83 79.7801 156.804 50.2891 139.189 35.5932C146.308 39.8137 152.775 45.7688 158.287 53.1184C169.854 68.5414 177.09 89.9743 177.09 113.765C177.09 137.557 169.854 158.989 158.287 174.412ZM81.4465 190.63C56.684 176.875 39.4276 147.794 39.4276 113.765C39.4276 79.7365 56.684 50.6556 81.4465 36.9007C61.2993 51.993 47.6874 80.7597 47.6874 113.765C47.6874 146.771 61.2993 175.538 81.4465 190.63ZM146.084 190.63C170.847 176.875 188.103 147.794 188.103 113.765C188.103 79.7365 170.847 50.6555 146.084 36.9007C166.231 51.993 179.843 80.7597 179.843 113.765C179.843 146.771 166.231 175.538 146.084 190.63ZM28.4146 113.765C28.4146 146.662 47.0256 175.212 74.2929 189.46C51.7625 174.081 36.6744 145.937 36.6744 113.765C36.6744 81.5937 51.7625 53.4495 74.2929 38.0708C47.0256 52.3191 28.4146 80.8688 28.4146 113.765ZM199.116 113.765C199.116 146.662 180.505 175.212 153.238 189.46C175.768 174.081 190.856 145.937 190.856 113.765C190.856 81.5937 175.768 53.4495 153.238 38.0708C180.505 52.3191 199.116 80.8688 199.116 113.765ZM118.821 175.723C120.796 159.924 122.025 138.017 122.025 113.765C122.025 89.5133 120.796 67.6068 118.821 51.8079C117.831 43.8892 116.666 37.6106 115.412 33.3653C115.321 33.0593 115.231 32.7671 115.142 32.4886V195.042C115.231 194.764 115.321 194.471 115.412 194.165C116.666 189.92 117.831 183.642 118.821 175.723ZM112.389 32.4886V195.042C112.299 194.764 112.209 194.471 112.119 194.165C110.864 189.92 109.7 183.642 108.71 175.723C106.735 159.924 105.506 138.017 105.506 113.765C105.506 89.5133 106.735 67.6068 108.71 51.8079C109.7 43.8892 110.864 37.6106 112.119 33.3653C112.209 33.0593 112.299 32.7671 112.389 32.4886Z" fill="url(#paint0_linear_33_50)"/>
<defs>
<linearGradient id="paint0_linear_33_50" x1="76.5965" y1="33.9211" x2="142.675" y2="207.376" gradientUnits="userSpaceOnUse">
<stop stop-color="#A77DFF"/>
<stop offset="1" stop-color="#A77DFF" stop-opacity="0"/>
</linearGradient>
</defs>
</svg>
